<svg xmlns="http://www.w3.org/2000/svg" xmlns:xlink="http://www.w3.org/1999/xlink" width="227" zoomAndPan="magnify" viewBox="0 0 170.25 42.75" height="57" preserveAspectRatio="xMidYMid meet" version="1.2"><defs/><g id="87a1d0be50"><g style="fill:#000000;fill-opacity:1;"><g transform="translate(30.994579, 26.183222)"><path style="stroke:none" d="M 9.34375 -11.28125 L 9.578125 -0.03125 L 6.265625 0.03125 L 6.171875 -3.9375 L 3.640625 -3.78125 L 3.390625 -0.046875 L 0.3125 0.015625 L 0.8125 -11.671875 L 1.4375 -12.421875 L 8.375 -12.71875 Z M 6.15625 -6.359375 L 6.078125 -9.515625 L 3.984375 -9.34375 L 3.828125 -6.515625 Z M 6.15625 -6.359375 "/></g></g><g style="fill:#000000;fill-opacity:1;"><g transform="translate(40.8963, 26.183222)"><path style="stroke:none" d="M 0.3125 -12.703125 L 9.265625 -12.703125 L 9.125 -9.59375 L 6.59375 -9.484375 L 6.234375 -0.265625 L 2.90625 0.046875 L 3 -9.5 L 0.328125 -9.625 Z M 0.3125 -12.703125 "/></g></g><g style="fill:#000000;fill-opacity:1;"><g transform="translate(50.479641, 26.183222)"><path style="stroke:none" d="M 7.84375 -2.875 L 8.03125 -0.03125 L 0.3125 -0.03125 L 0.3125 -12.765625 L 7.765625 -12.53125 L 7.671875 -9.609375 L 3.578125 -9.671875 L 3.578125 -8.078125 L 6.21875 -7.90625 L 6.21875 -5.140625 L 3.5625 -5.296875 L 3.546875 -3.125 Z M 7.84375 -2.875 "/></g></g><g style="fill:#000000;fill-opacity:1;"><g transform="translate(58.821284, 26.183222)"><path style="stroke:none" d="M 8.046875 -3.015625 L 8.40625 0.015625 L 0.3125 0.015625 L 0.4375 -12.765625 L 3.84375 -12.5625 L 3.65625 -3.0625 Z M 8.046875 -3.015625 "/></g></g><g style="fill:#000000;fill-opacity:1;"><g transform="translate(67.544994, 26.183222)"><path style="stroke:none" d="M 0.40625 -12.5625 L 3.875 -12.671875 L 3.4375 -0.3125 L 0.3125 0.015625 Z M 0.40625 -12.5625 "/></g></g><g style="fill:#000000;fill-opacity:1;"><g transform="translate(71.731732, 26.183222)"><path style="stroke:none" d="M 7.84375 -2.875 L 8.03125 -0.03125 L 0.3125 -0.03125 L 0.3125 -12.765625 L 7.765625 -12.53125 L 7.671875 -9.609375 L 3.578125 -9.671875 L 3.578125 -8.078125 L 6.21875 -7.90625 L 6.21875 -5.140625 L 3.5625 -5.296875 L 3.546875 -3.125 Z M 7.84375 -2.875 "/></g></g><g style="fill:#000000;fill-opacity:1;"><g transform="translate(80.073375, 26.183222)"><path style="stroke:none" d="M 8.671875 -3.546875 L 7.84375 -3.453125 L 8.96875 -1.171875 L 8.6875 -0.640625 L 6.234375 0 L 4.46875 -3.234375 L 3.6875 -3.203125 L 3.546875 -0.3125 L 0.3125 -0.046875 L 0.3125 -12.765625 L 8.65625 -12.265625 L 9.28125 -11.640625 L 9.296875 -4.625 Z M 5.9375 -6.21875 L 5.953125 -9.796875 L 3.859375 -10 L 3.78125 -6.0625 Z M 5.9375 -6.21875 "/></g></g><g style="fill:#000000;fill-opacity:1;"><g transform="translate(89.688548, 26.183222)"><path style="stroke:none" d=""/></g></g><g style="fill:#000000;fill-opacity:1;"><g transform="translate(94.464303, 26.183222)"><path style="stroke:none" d="M 7.84375 -2.875 L 8.03125 -0.03125 L 0.3125 -0.03125 L 0.3125 -12.765625 L 7.765625 -12.53125 L 7.671875 -9.609375 L 3.578125 -9.671875 L 3.578125 -8.078125 L 6.21875 -7.90625 L 6.21875 -5.140625 L 3.5625 -5.296875 L 3.546875 -3.125 Z M 7.84375 -2.875 "/></g></g><g style="fill:#000000;fill-opacity:1;"><g transform="translate(102.805945, 26.183222)"><path style="stroke:none" d="M 8.046875 -3.015625 L 8.40625 0.015625 L 0.3125 0.015625 L 0.4375 -12.765625 L 3.84375 -12.5625 L 3.65625 -3.0625 Z M 8.046875 -3.015625 "/></g></g><g style="fill:#000000;fill-opacity:1;"><g transform="translate(111.529655, 26.183222)"><path style="stroke:none" d="M 7.84375 -2.84375 L 8.03125 -0.015625 L 0.3125 -0.015625 L 0.3125 -12.734375 L 7.765625 -12.5 L 7.671875 -9.578125 L 3.578125 -9.65625 L 3.578125 -8.046875 L 6.21875 -7.890625 L 6.21875 -5.125 L 3.5625 -5.265625 L 3.546875 -3.09375 Z M 4.78125 -14.109375 L 3.78125 -13.328125 L 1.671875 -15.375 L 3.140625 -16.640625 Z M 4.78125 -14.109375 "/></g></g><g style="fill:#000000;fill-opacity:1;"><g transform="translate(119.871298, 26.183222)"><path style="stroke:none" d="M 6.40625 -12.515625 L 9.96875 -12.671875 L 9.5 -0.125 L 6.65625 -0.015625 L 3.71875 -6.21875 L 3.5 -0.3125 L 0.3125 0 L 0.40625 -12.65625 L 3.859375 -12.65625 L 6.375 -7.34375 Z M 6.40625 -12.515625 "/></g></g><g style="fill:#000000;fill-opacity:1;"><g transform="translate(130.155087, 26.183222)"><path style="stroke:none" d="M 7.84375 -2.875 L 8.03125 -0.03125 L 0.3125 -0.03125 L 0.3125 -12.765625 L 7.765625 -12.53125 L 7.671875 -9.609375 L 3.578125 -9.671875 L 3.578125 -8.078125 L 6.21875 -7.90625 L 6.21875 -5.140625 L 3.5625 -5.296875 L 3.546875 -3.125 Z M 7.84375 -2.875 "/></g></g></g></svg>